<svg id="Capa_1" data-name="Capa 1" xmlns="http://www.w3.org/2000/svg" xmlns:xlink="http://www.w3.org/1999/xlink" viewBox="0 0 100 80.5"><defs><style>.cls-1{fill:none;}.cls-2{fill:url(#Degradado_sin_nombre_3);}.cls-3{fill:#fdb797;}.cls-4{fill:#f86032;}.cls-5{clip-path:url(#clip-path);}.cls-6,.cls-7{opacity:0.1;}.cls-6{isolation:isolate;}.cls-8{fill:#333;}.cls-9{fill:#575988;}.cls-10{fill:#e14b5a;}</style><linearGradient id="Degradado_sin_nombre_3" x1="203.59" y1="-59.9" x2="203.59" y2="11.06" gradientTransform="matrix(1, 0, 0, -1, -146.79, 14.45)" gradientUnits="userSpaceOnUse"><stop offset="0" stop-color="gray" stop-opacity="0.25"/><stop offset="0.54" stop-color="gray" stop-opacity="0.12"/><stop offset="1" stop-color="gray" stop-opacity="0.1"/></linearGradient><clipPath id="clip-path"><path id="SVGID" class="cls-1" d="M32,16.81s4.87,1.46,11.69-.73,21,3.16,21,3.16,11.2,0,27.77-7.06c0,0-7.55,7.31-2.19,11.69S90.74,34.59,84.41,37,77.59,44.33,78.08,49s0,.24,0,.24-19-3.41-23.87,8.29l-24.12-38S28.63,16.56,32,16.81Z"/></clipPath></defs><title>Iconos_Valores</title><path class="cls-2" d="M91.3,23.53a5.87,5.87,0,0,1-.72-.69V23c-1.75-1.79-1.69-3.95-1-5.93l.24-.08a17.35,17.35,0,0,1,3.7-5.47l-.38.16.18-.19c-16,6.82-27.11,7.22-28.35,7.24a71.24,71.24,0,0,0-13.16-3.44A27.22,27.22,0,0,0,46.3,15L44.38,6.75l0,0a5,5,0,0,0-1.64-3.21c-1.63-1.26-.42,4.57-.42,4.57l.14-.06.68,7.34-.33.28a25.86,25.86,0,0,1-5.91,1,4.39,4.39,0,0,0,.9-1.2.8.8,0,0,0,.72-.22.89.89,0,0,0,.16-.22,1.85,1.85,0,0,0,.21-.45,14.16,14.16,0,0,0,1-3.28A4.13,4.13,0,0,0,39,8.13a2.46,2.46,0,0,0-3.09-.52,6.05,6.05,0,0,1-.72.53c-.81.39-1.71-.25-2.46-.74a2.93,2.93,0,0,0-2.94-.46,1.74,1.74,0,0,0-.68.69A2.22,2.22,0,0,0,28.76,9a3.1,3.1,0,0,0,1,2,1.77,1.77,0,0,0,.66.42.58.58,0,0,0,.19,0,4.13,4.13,0,0,0-.6,3.13l-.34,2a1.14,1.14,0,0,0-.56.74,6.39,6.39,0,0,0-2.84,1l-5.53,5.53c-1.43,1-.46,2.76-.46,2.76l3.23,9.67.17-.14c.66,1.21,2.6,4.53,3,2.87a5.16,5.16,0,0,0-1-3.83h0l-.37-.47L24,27.5l1.71-1.7L28,25.47l.1,14.88c-4.19,11-3.68,16.11-3.68,16.11l3.68,13.8.47-.07.12.45h0l.2,1h-.37L28.05,73s-2.35,0-2.3.46,1.33,1.38,4.61.46l.92-.92s.46-.46-.46-1.38h-.07l-.26-1.79.33-.06L28.05,56c2.3-1.89,6.45-9.2,6.45-9.2s4.14,7.31,6.44,9.2L38.18,69.8l.32,0-.25,1.79h-.07c-.92.92-.46,1.38-.46,1.38l.92.92c3.28.93,4.56.06,4.61-.46S40.94,73,40.94,73l-.46-1.38h-.36l.26-1.32,0-.14.51.08,3.69-13.81A60.38,60.38,0,0,0,41,38.5l7.35,10.3L54.14,58a12.28,12.28,0,0,1,1.13-2.12l4.21-3.93c4.89-2.91,11.41-3.09,15.44-2.85l3.72.41,1.74-9.21A10.64,10.64,0,0,1,85.11,37c4.56-1.75,8.38-5.47,8.35-9.09.07.07.13.15.19.22A5.59,5.59,0,0,0,91.3,23.53ZM40.85,37.18V37l.22.33Z"/><path class="cls-3" d="M26.46,35.24h0l-.82-1.05-1.32,1.32.14.22-.16,0S27,40.93,27.4,39A5,5,0,0,0,26.46,35.24Z"/><path class="cls-4" d="M32,16.81s4.87,1.46,11.69-.73,21,3.16,21,3.16,11.2,0,27.77-7.06c0,0-7.55,7.31-2.19,11.69S90.74,34.59,84.41,37,77.59,44.33,78.08,49s0,.24,0,.24-19-3.41-23.87,8.29l-24.12-38S28.63,16.56,32,16.81Z"/><g class="cls-5"><polygon class="cls-6" points="19.97 9.64 80.62 53.24 84.27 42.52 19.97 9.64"/><polygon class="cls-6" points="23.62 23.28 57.24 57.38 62.11 53.72 23.62 23.28"/></g><g class="cls-7"><path d="M33.45,20.24s4.87,1.47,11.69-.73,21,3.17,21,3.17,9.06,0,22.93-5.14a17,17,0,0,1,3.62-5.33c-16.57,7.06-27.77,7.06-27.77,7.06s-14.13-5.36-21-3.17-11.69.73-11.69.73c-3.41-.24-1.95,2.68-1.95,2.68l1,1.59C31.49,20.56,32.07,20.15,33.45,20.24Z"/><path d="M90.45,23.9a6.35,6.35,0,0,1-.7-.67,4.82,4.82,0,0,0,1.91,4.08,7.22,7.22,0,0,1,1.08,1.06A5.48,5.48,0,0,0,90.45,23.9Z"/></g><polygon class="cls-3" points="40.88 69.03 40.44 71.27 38.64 71.27 39.09 68.13 40.88 69.03"/><polygon class="cls-6" points="40.85 69.34 40.72 69.72 38.95 69.21 39.08 68.96 40.85 69.34"/><polygon class="cls-3" points="29.21 69.03 29.66 71.27 31.46 71.27 31.01 68.13 29.21 69.03"/><polygon class="cls-6" points="29.21 69.34 29.33 69.84 31.1 69.21 31.1 68.96 29.21 69.34"/><path class="cls-3" d="M44.68,7.93a5,5,0,0,0-1.63-3.49c-1.58-1.24-.39,4.45-.39,4.45Z"/><path class="cls-8" d="M31.46,70.82H29.21l-.45,1.35s-2.29,0-2.24.45,1.3,1.35,4.49.45l.9-.9S32.35,71.72,31.46,70.82Z"/><path class="cls-8" d="M38.64,70.82h2.24l.45,1.35s2.3,0,2.25.45-1.3,1.35-4.49.45l-.9-.9S37.74,71.72,38.64,70.82Z"/><path class="cls-9" d="M41.33,40.3H28.76C24.67,51.07,25.17,56,25.17,56l3.59,13.47,2.7-.45-2.7-13.47c2.25-1.84,6.29-9,6.29-9s4,7.13,6.28,9L38.63,69l2.7.45L44.92,56S45.42,51.07,41.33,40.3Z"/><path class="cls-6" d="M28.76,40.47s7.13,2.7,12.57,0Z"/><path class="cls-10" d="M28.37,24.18l-3.59,3.59L26.12,35,24.33,36.3l-3.14-9.42s-1-1.75.45-2.7L27,18.79s2.31-1.55,3.9-.75-2.58,6.08-2.58,6.08"/><path class="cls-10" d="M28.31,24.14l.45,16.16s7.13,2.7,12.57,0l-.45-15.21-.11-.51.08-.25,5.4-4.47c1.47-.81.69-2.64.69-2.64L44.69,7.54,42.78,8.72,43.45,16l-3.84,3.19h-.1v0l-9.85-.45"/><rect class="cls-3" x="33.28" y="16.53" width="3.59" height="4.04" rx="1.52"/><path class="cls-6" d="M33.39,18.26a4,4,0,0,0,3.47-.39,1.79,1.79,0,0,0-1.69-1.18h0A1.8,1.8,0,0,0,33.39,18.26Z"/><circle class="cls-3" cx="34.62" cy="14.29" r="4.04"/><path class="cls-6" d="M31.82,12.06a2.1,2.1,0,0,1-.75,0,1.7,1.7,0,0,1-.64-.42,3,3,0,0,1-1-1.91,2,2,0,0,1,.92-1.87,2.87,2.87,0,0,1,2.87.45c.74.48,1.61,1.1,2.4.72a7,7,0,0,0,.7-.51,2.38,2.38,0,0,1,3,.5,4,4,0,0,1,.83,3.14,14,14,0,0,1-.94,3.2,1.52,1.52,0,0,1-.3.56c-.48.49-1.36.11-1.68-.49-.54-1.05,0-2.87-1.28-3.48C35,11.42,32.91,12,31.82,12.06Z"/><path class="cls-8" d="M31.88,12a2.1,2.1,0,0,1-.75,0,1.7,1.7,0,0,1-.64-.42,3,3,0,0,1-1-1.91,2,2,0,0,1,.92-1.87,2.87,2.87,0,0,1,2.87.45c.74.48,1.61,1.1,2.4.72a7,7,0,0,0,.7-.51,2.38,2.38,0,0,1,3,.5A4,4,0,0,1,40.25,12a14.49,14.49,0,0,1-.94,3.2,1.68,1.68,0,0,1-.3.56c-.48.49-1.37.11-1.68-.49-.54-1,0-2.87-1.28-3.48C35,11.32,33,11.89,31.88,12Z"/><ellipse class="cls-3" cx="36.87" cy="14.29" rx="0.45" ry="0.9"/><polygon class="cls-6" points="28.32 24.14 29.46 24.67 28.32 26.06 28.32 24.14"/><polygon class="cls-6" points="40.85 24.33 40.09 25.18 40.59 25.93 40.89 25.09 40.85 24.33"/><path class="cls-4" d="M35.13,20.21V21s-5.34-1-5.47-2.44l3.52.24Z"/><path class="cls-4" d="M35.13,20.21V21s5.33-1,5.46-2.44l-3.52.24Z"/><polygon class="cls-6" points="67.71 28.15 85.25 32.29 78.92 34.97 67.71 28.15"/><path class="cls-4" d="M29.68,18.54s0-1.53,1-1.53,2,3.07,2,3.07Z"/></svg>