<svg id="Capa_1" data-name="Capa 1" xmlns="http://www.w3.org/2000/svg" xmlns:xlink="http://www.w3.org/1999/xlink" viewBox="0 0 100 80.5"><defs><style>.cls-1{fill:url(#Degradado_sin_nombre_2);}.cls-2{fill:url(#Degradado_sin_nombre_2-2);}.cls-3{fill:url(#Degradado_sin_nombre_2-3);}.cls-4{fill:#f5f5f5;}.cls-5{fill:#fff;}.cls-6,.cls-9{fill:#f86032;}.cls-6{opacity:0.3;isolation:isolate;}.cls-7{fill:url(#Degradado_sin_nombre_6);}.cls-8{fill:url(#Degradado_sin_nombre_5);}.cls-10{fill:url(#Degradado_sin_nombre_6-2);}.cls-11{fill:url(#Degradado_sin_nombre_7);}</style><linearGradient id="Degradado_sin_nombre_2" x1="25.59" y1="11.48" x2="25.59" y2="65.78" gradientTransform="matrix(1, 0, 0, -1, 0, 86.45)" gradientUnits="userSpaceOnUse"><stop offset="0" stop-color="gray" stop-opacity="0.25"/><stop offset="0.54" stop-color="gray" stop-opacity="0.12"/><stop offset="1" stop-color="gray" stop-opacity="0.1"/></linearGradient><linearGradient id="Degradado_sin_nombre_2-2" x1="47.77" y1="11.48" x2="47.77" y2="65.78" xlink:href="#Degradado_sin_nombre_2"/><linearGradient id="Degradado_sin_nombre_2-3" x1="69.74" y1="11.48" x2="69.74" y2="65.78" xlink:href="#Degradado_sin_nombre_2"/><linearGradient id="Degradado_sin_nombre_6" x1="225.35" y1="0.2" x2="225.35" y2="16.64" gradientTransform="matrix(1, 0, 0, -1, -156.2, 33.8)" gradientUnits="userSpaceOnUse"><stop offset="0" stop-color="#b3b3b3" stop-opacity="0.25"/><stop offset="0.54" stop-color="#b3b3b3" stop-opacity="0.1"/><stop offset="1" stop-color="#b3b3b3" stop-opacity="0.05"/></linearGradient><linearGradient id="Degradado_sin_nombre_5" x1="69.15" y1="62.78" x2="69.15" y2="65.97" gradientTransform="matrix(1, 0, 0, -1, 0, 86.45)" gradientUnits="userSpaceOnUse"><stop offset="0" stop-opacity="0.12"/><stop offset="0.55" stop-opacity="0.09"/><stop offset="1" stop-opacity="0.02"/></linearGradient><linearGradient id="Degradado_sin_nombre_6-2" x1="182.25" y1="-32.9" x2="182.25" y2="-16.34" xlink:href="#Degradado_sin_nombre_6"/><linearGradient id="Degradado_sin_nombre_7" x1="26.04" y1="29.76" x2="26.04" y2="32.97" gradientTransform="matrix(1, 0, 0, -1, 0, 86.45)" gradientUnits="userSpaceOnUse"><stop offset="0.01" stop-opacity="0.12"/><stop offset="0.55" stop-opacity="0.09"/><stop offset="1" stop-opacity="0.05"/></linearGradient></defs><title>Iconos_Valores</title><polygon class="cls-1" points="36.68 72.89 14.5 74.97 14.5 22.75 36.68 20.67 36.68 72.89"/><polygon class="cls-2" points="36.68 72.89 58.87 74.97 58.87 22.75 36.68 20.67 36.68 72.89"/><polygon class="cls-3" points="80.61 72.89 58.87 74.97 58.87 22.75 80.61 20.67 80.61 72.89"/><polygon class="cls-4" points="36.76 71.44 15.21 73.44 15.21 23.27 36.76 21.27 36.76 71.44"/><polygon class="cls-5" points="36.76 71.44 58.31 73.44 58.31 23.27 36.76 21.27 36.76 71.44"/><polygon class="cls-4" points="79.87 71.44 58.31 73.44 58.31 23.27 79.87 21.27 79.87 71.44"/><polygon class="cls-6" points="36.76 25.87 20.39 26.45 20.39 28.68 20.39 31.75 20.39 33.98 34.29 33.98 34.29 31.26 36.76 31.17 40.53 32.34 40.53 27.04 36.76 25.87"/><polygon class="cls-6" points="36.76 68.02 18.39 69.79 18.39 63.08 36.76 61.31 36.76 68.02"/><polygon class="cls-6" points="34.75 47.24 16.38 49.01 16.38 42.3 34.75 40.53 34.75 47.24"/><rect class="cls-6" x="47.6" y="62.84" width="8.01" height="6.12"/><rect class="cls-6" x="44.99" y="48.47" width="8.01" height="6.12"/><rect class="cls-6" x="48.27" y="29.32" width="8.01" height="6.12"/><polygon class="cls-6" points="76.81 66.14 64.32 67.2 64.32 59.07 76.81 58.01 76.81 66.14"/><polygon class="cls-6" points="75.32 37.54 62.83 38.6 62.83 30.47 75.32 29.41 75.32 37.54"/><path class="cls-7" d="M74.24,22.44c0,2.91-5.09,11.16-5.09,11.16s-5.09-8.25-5.09-11.16a5.09,5.09,0,1,1,10.18,0Z"/><ellipse class="cls-8" cx="69.15" cy="22.07" rx="1.54" ry="1.59"/><path class="cls-9" d="M73.86,22.45c0,2.6-4.71,10-4.71,10s-4.71-7.37-4.71-10a4.71,4.71,0,1,1,9.42,0Z"/><circle class="cls-5" cx="69.15" cy="22.12" r="1.42"/><path class="cls-10" d="M31.29,55.45C31.29,58.39,26,66.7,26,66.7S20.8,58.39,20.8,55.45a5.25,5.25,0,1,1,10.49,0Z"/><ellipse class="cls-11" cx="26.04" cy="55.08" rx="1.59" ry="1.61"/><path class="cls-9" d="M30.76,55.43c0,2.6-4.72,10-4.72,10s-4.71-7.37-4.71-10a4.72,4.72,0,1,1,9.43,0Z"/><circle class="cls-5" cx="26.04" cy="55.1" r="1.42"/><path class="cls-9" d="M56.3,55.8c0,2.6-4.71,10-4.71,10s-4.71-7.37-4.71-10a4.71,4.71,0,1,1,9.42,0Z"/><circle class="cls-5" cx="51.59" cy="55.47" r="1.42"/><path class="cls-9" d="M74.77,52.82c0,2.6-4.71,10-4.71,10s-4.71-7.37-4.71-10a4.71,4.71,0,1,1,9.42,0Z"/><circle class="cls-5" cx="70.06" cy="52.49" r="1.42"/><path class="cls-9" d="M33.14,20.49c0,2.61-4.71,10-4.71,10s-4.72-7.37-4.72-10a4.72,4.72,0,0,1,9.43,0Z"/><circle class="cls-5" cx="28.43" cy="20.17" r="1.42"/></svg>