<svg id="Capa_1" data-name="Capa 1" xmlns="http://www.w3.org/2000/svg" xmlns:xlink="http://www.w3.org/1999/xlink" viewBox="0 0 100 80.5"><defs><style>.cls-1{fill:none;stroke:#535461;stroke-miterlimit:10;}.cls-2{fill:#f86032;}.cls-3{opacity:0.1;}.cls-13,.cls-3,.cls-4,.cls-6{isolation:isolate;}.cls-4{opacity:0.3;}.cls-5{fill:#a8a8a8;}.cls-6{opacity:0.2;}.cls-7{fill:url(#Degradado_sin_nombre_2);}.cls-8{fill:#f7c4a7;}.cls-9{fill:#535461;}.cls-10{fill:#575988;}.cls-11{fill:#e14b5a;}.cls-12{fill:#333;}.cls-13{fill:#fff;opacity:0.5;}</style><linearGradient id="Degradado_sin_nombre_2" x1="106.01" y1="-53.24" x2="106.01" y2="11.58" gradientTransform="matrix(1, 0, 0, -1, -37.66, 21.08)" gradientUnits="userSpaceOnUse"><stop offset="0" stop-color="gray" stop-opacity="0.25"/><stop offset="0.54" stop-color="gray" stop-opacity="0.12"/><stop offset="1" stop-color="gray" stop-opacity="0.1"/></linearGradient></defs><title>Iconos_Valores</title><path class="cls-1" d="M38,21.12s-9.36-2.77-10,5.11,2.47,20.88,0,25.05S16.7,61.49,21.34,62s7,1.31,5.58,4.09-8.66,5.41-7.11,7.42,2.31,4.49.77,7"/><rect class="cls-2" x="29.91" y="15.87" width="23.75" height="11.01" rx="2.01"/><rect class="cls-3" x="31.8" y="25.19" width="19.96" height="0.21"/><rect class="cls-4" x="31.8" y="17.59" width="19.96" height="7.57"/><circle class="cls-3" cx="36.45" cy="21.53" r="2.75"/><circle class="cls-3" cx="47.12" cy="21.53" r="2.75"/><rect class="cls-2" x="39.72" y="26.88" width="4.13" height="2.41"/><rect class="cls-2" x="33.18" y="28.6" width="17.21" height="13.77"/><rect class="cls-2" x="32.83" y="45.12" width="17.9" height="1.72"/><polygon class="cls-2" points="35.76 50.98 35.76 53.04 35.76 56.14 35.76 57.86 35.76 58.89 38.86 58.89 38.86 57.86 38.86 56.14 38.86 53.04 38.86 50.98 38.86 48.57 35.76 48.57 35.76 50.98"/><polygon class="cls-2" points="45.05 48.57 45.05 50.98 45.05 53.04 45.05 56.14 45.05 57.86 45.05 58.89 48.15 58.89 48.15 57.86 48.15 56.14 48.15 53.04 48.15 50.98 48.15 48.57 45.05 48.57"/><path class="cls-2" d="M30.83,31.7v3.18A4.64,4.64,0,0,0,28.54,36a5.48,5.48,0,0,0-1.36,2A10.36,10.36,0,0,0,26.51,41a17.49,17.49,0,0,0,.19,4.09H23.26a23.9,23.9,0,0,1,.09-4.93,13.31,13.31,0,0,1,1.1-3.92,8,8,0,0,1,3.67-3.84A6.76,6.76,0,0,1,30.83,31.7Z"/><rect class="cls-4" x="35.76" y="48.57" width="3.1" height="2.41"/><rect class="cls-4" x="35.76" y="53.04" width="3.1" height="3.1"/><rect class="cls-4" x="35.76" y="57.86" width="3.1" height="1.03"/><rect class="cls-4" x="45.05" y="48.57" width="3.1" height="2.41"/><rect class="cls-4" x="45.05" y="53.04" width="3.1" height="3.1"/><rect class="cls-4" x="45.05" y="57.86" width="3.1" height="1.03"/><path class="cls-4" d="M30.83,31.7v3.18A4.64,4.64,0,0,0,28.54,36l-.42-3.56A6.76,6.76,0,0,1,30.83,31.7Z"/><path class="cls-4" d="M27.18,38A10.36,10.36,0,0,0,26.51,41l-3.16-.84a13.31,13.31,0,0,1,1.1-3.92Z"/><path class="cls-2" d="M52.73,31.7v3.18A4.64,4.64,0,0,1,55,36a5.36,5.36,0,0,1,1.36,2A10,10,0,0,1,57.05,41a17,17,0,0,1-.19,4.09H60.3a22.58,22.58,0,0,0-.09-4.93,13,13,0,0,0-1.1-3.92,8,8,0,0,0-3.66-3.84A6.8,6.8,0,0,0,52.73,31.7Z"/><path class="cls-4" d="M52.73,31.7v3.18A4.64,4.64,0,0,1,55,36l.43-3.56A6.8,6.8,0,0,0,52.73,31.7Z"/><path class="cls-4" d="M56.38,38A10,10,0,0,1,57.05,41l3.16-.84a13,13,0,0,0-1.1-3.92Z"/><rect class="cls-3" x="39.72" y="26.88" width="4.13" height="0.29"/><path class="cls-3" d="M50.69,31.06v5.76a1.22,1.22,0,0,1-.32-.82V31.87A1.21,1.21,0,0,1,50.69,31.06Z"/><path class="cls-3" d="M33.24,31.44v4.31a1.25,1.25,0,0,1-.32.73V30.71A1.22,1.22,0,0,1,33.24,31.44Z"/><rect class="cls-3" x="34.04" y="42.37" width="15.49" height="0.2"/><rect class="cls-3" x="33.69" y="46.85" width="7.57" height="0.16"/><rect class="cls-3" x="41.95" y="46.85" width="7.57" height="0.16"/><rect class="cls-2" x="34.54" y="5.67" width="1.19" height="10.19"/><rect class="cls-2" x="48.13" y="5.67" width="1.19" height="10.19"/><circle class="cls-3" cx="35.09" cy="5.75" r="1.34"/><circle class="cls-2" cx="35.09" cy="5.67" r="1.34"/><circle class="cls-3" cx="48.76" cy="5.75" r="1.34"/><circle class="cls-2" cx="48.76" cy="5.67" r="1.34"/><rect class="cls-2" x="53.28" y="14.71" width="11.44" height="1.39" transform="translate(-1.91 18.3) rotate(-17.35)"/><path class="cls-5" d="M69.11,64.73s-6-1.19-7.58-2.79S52.75,57.55,52,59.55s-10.78,8.78-4,10,16,1.6,18,.8S69.11,64.73,69.11,64.73Z"/><path class="cls-6" d="M48,68.78c6.78,1.2,16,1.6,18,.8,1.52-.61,2.58-3.53,3-4.89l.2,0s-1.19,4.79-3.19,5.59-11.18.4-18-.8c-2-.34-2.52-1.15-2.31-2.18C45.82,68,46.5,68.52,48,68.78Z"/><path class="cls-7" d="M82.41,12.54a1.73,1.73,0,0,0-.5-.69c-1.6-1.47-4.2-1-6.2-1.92a2.65,2.65,0,0,0-1.42-.41c-.7.11-1.35.9-2,.55l0,.13,0,0,.45,1.36a4.87,4.87,0,0,0,.69,1.5,3.92,3.92,0,0,0,.94,6.51l.06.14.06,0a5,5,0,0,1,.3.95,5.41,5.41,0,0,0-2.31,1.49l-1.77-.07A5.74,5.74,0,0,1,67.56,21l-5.3-3.81a1.73,1.73,0,0,0-1,.45c-.66-.69-1.22-1.4-1.17-1.82,0,0-2.47-4.62-3.36-2.31s1.68,4.72,1.68,4.72L60,20.35a10.55,10.55,0,0,0-.12,1.13c2,2.3,9.08,4.39,9.08,4.39l1.1.05V26a4.32,4.32,0,0,0-.1.88V27s0,.06,0,.09c.06,3.68.57,14.94.57,14.94l.3-.12-.08,1a45.26,45.26,0,0,0-8.18,2C59.12,46.19,59,47.73,59,47.73V61.3c-1,.51-2.56,1.18-3.36.82s-1.35-.06-1.44.28h0a.5.5,0,0,0,0,.21h0l0,.09h0a.19.19,0,0,0,.06.07c.33.33,7.62,3.19,9.3,2.75l.15,0,.05,0,.09,0,.05,0,.07-.06,0,0,.06-.06s0,0,0,0l.06-.07a.1.1,0,0,1,0,0,.35.35,0,0,1,0-.08l0,0,0-.09a.14.14,0,0,0,0-.06.36.36,0,0,0,0-.09.14.14,0,0,0,0-.06.3.3,0,0,0,0-.1s0,0,0,0l0-.11v-.06l0-.12v0a.68.68,0,0,0,0-.14v0s0-.09,0-.14v0a.86.86,0,0,0,0-.16v0a1,1,0,0,0,0-.17h0a9.18,9.18,0,0,0-.22-1.95h0l.41-11.56a65.86,65.86,0,0,0,6.59-.24l.25,5.51s0,3.63,1.23,5.28c1,1.41,2.27,7.64,2.6,9.41a3.11,3.11,0,0,1-2.83,1.9s-2.83-.24-2.67.54h0s0,0,0,.06h0l0,.07h0a.25.25,0,0,0,0,.07h0l0,.07h0l.06.06,0,0a.6.6,0,0,0,.08.08c1.46,1.32,10,1.54,10,1.54h0v0h0v0h0a14.29,14.29,0,0,0-.56-3.9h.12S78.62,59.27,77.62,58A58.72,58.72,0,0,1,78,48.43l.11,0c2.83-1,3-3.65,2.74-5.56.53.17.85.29.85.29l0-.23h0s-.05-.35-.14-.89a38.54,38.54,0,0,0-1-5.35c-.07-.27-.14-.51-.2-.68a12,12,0,0,1-.49-2.28,28,28,0,0,1-.17-3,28.81,28.81,0,0,1,.31-4,24.89,24.89,0,0,0,.31-3.42,4.53,4.53,0,0,0-.07-1,2.26,2.26,0,0,0-1.49-1.41l-.14,0c0-.26,0-.55.07-.86a.76.76,0,0,0,.57.11,1.33,1.33,0,0,0,.7-.54,10.85,10.85,0,0,0,2.39-4,8.9,8.9,0,0,0,.21-2.06v-.11A2.23,2.23,0,0,0,82.41,12.54Z"/><path class="cls-8" d="M73.37,18.48s1.5,2.26,1.18,3.33,3.55.43,3.55.43.1-4.19.86-5.15S73.37,18.48,73.37,18.48Z"/><path class="cls-8" d="M63.42,19.93s-3.11-2.58-3-3.54c0,0-2.37-4.52-3.23-2.26s1.61,4.62,1.61,4.62l3,4Z"/><path class="cls-9" d="M60.25,60.4s-2.9,1.83-4.08,1.29-1.61.32-1.29.65S62.19,65.45,63.8,65s.79-3.95.79-3.95Z"/><path class="cls-9" d="M75.62,68.25s-.69,3-3.11,2.9c0,0-3.66-.32-2.26,1s9.57,1.5,9.57,1.5,0-4.41-1.51-5.37A2.3,2.3,0,0,0,75.62,68.25Z"/><path class="cls-10" d="M71.22,47.4l.32,7.52s0,3.55,1.18,5.16,2.58,9.67,2.58,9.67h4.09S78.2,58.9,77.24,57.61c0,0-.43-9.57,1.07-11.72Z"/><path class="cls-3" d="M71.22,47.4l.32,7.52s0,3.55,1.18,5.16,2.58,9.67,2.58,9.67h4.09S78.2,58.9,77.24,57.61c0,0-.43-9.57,1.07-11.72Z"/><path class="cls-10" d="M79.71,40.62s2.47,5.92-2,7.64S65,49.76,65,49.76l-.43,12.47s-5,.64-5.16-1V47.61s.11-1.5,3.44-2.79a43.19,43.19,0,0,1,7.85-1.94l.22-2.79Z"/><path class="cls-3" d="M75.75,21.15a5.06,5.06,0,0,1,2.52.36,2.16,2.16,0,0,1,1.44,1.38A15.81,15.81,0,0,1,79.47,27a28.28,28.28,0,0,0-.13,7.12,7.44,7.44,0,0,0,.48,2.23c.64,1.19,1.29,6.78,1.29,6.78S74,40.41,70.47,42c0,0-.49-11-.54-14.62,0-2.78,3.49-6,4.67-6.07C75.3,21.27,75.06,21.22,75.75,21.15Z"/><path class="cls-11" d="M75.75,20.93a5.17,5.17,0,0,1,2.52.36,2.18,2.18,0,0,1,1.44,1.38,15.78,15.78,0,0,1-.24,4.08,28.36,28.36,0,0,0-.13,7.13,12.32,12.32,0,0,0,.48,2.23c.48,1.45,1.29,6.77,1.29,6.77S74,40.19,70.47,41.81c0,0-.49-11-.54-14.62,0-2.79,3.49-6,4.67-6.07C75.3,21.05,75.06,21,75.75,20.93Z"/><path class="cls-3" d="M77.67,26.87,70,26.44s-.49-3.75.61-3.71L78.2,23A2.71,2.71,0,0,1,77.67,26.87Z"/><path class="cls-11" d="M77.67,26.65,69,26.22s-6.77-2-8.71-4.3c0,0,.11-4,2.26-4.19l5.09,3.73a5.48,5.48,0,0,0,3.05,1.06l7.55.26A2.71,2.71,0,0,1,77.67,26.65Z"/><path class="cls-3" d="M78,19A3,3,0,0,1,79,17.19c.75-1-5.59,1.4-5.59,1.4a11.42,11.42,0,0,1,.85,1.58,3.93,3.93,0,0,0,1.62.35C76.77,20.52,77.37,19.52,78,19Z"/><circle class="cls-8" cx="75.84" cy="16.55" r="3.87"/><path class="cls-3" d="M73.4,13.84a4.19,4.19,0,0,1-.8-1.64l-.43-1.33c.58.35,1.2-.43,1.87-.54a2.57,2.57,0,0,1,1.37.41c1.92.87,4.41.44,6,1.87a1.79,1.79,0,0,1,.48.67,2.19,2.19,0,0,1,.08.76,8.55,8.55,0,0,1-.2,2A10.62,10.62,0,0,1,79.42,20a1.26,1.26,0,0,1-.66.53c-.56.12-1-.47-1.2-1a10.69,10.69,0,0,1-.62-2.16,3,3,0,0,0-.26-.91A8.09,8.09,0,0,0,75,14.84C74.54,14.39,73.85,14.34,73.4,13.84Z"/><path class="cls-12" d="M73.4,13.73a4.22,4.22,0,0,1-.8-1.63l-.43-1.33c.58.34,1.2-.44,1.87-.54a2.48,2.48,0,0,1,1.37.4c1.92.88,4.41.44,6,1.87a1.91,1.91,0,0,1,.48.68,2.11,2.11,0,0,1,.08.75,8.55,8.55,0,0,1-.2,2,10.62,10.62,0,0,1-2.3,3.92,1.26,1.26,0,0,1-.66.53c-.56.13-1-.47-1.2-1a10.59,10.59,0,0,1-.62-2.15,2.81,2.81,0,0,0-.26-.91A8.4,8.4,0,0,0,75,14.73C74.54,14.28,73.85,14.23,73.4,13.73Z"/><ellipse class="cls-8" cx="76.86" cy="16.98" rx="0.32" ry="0.7"/><path class="cls-3" d="M78.8,35.63s-.22.64-1.29.53-4.2-.32-4.2,0"/><path class="cls-13" d="M70.25,72a.84.84,0,0,1-.31-.45c0,.14.06.32.31.56,1.4,1.29,9.57,1.5,9.57,1.5a.87.87,0,0,0,0-.11S71.64,73.29,70.25,72Z"/><path class="cls-13" d="M63.8,64.81c-1.61.43-8.6-2.37-8.92-2.69a.42.42,0,0,1-.09-.16.41.41,0,0,0,.09.38c.32.32,7.31,3.11,8.92,2.68.83-.22,1-1.26,1-2.22C64.78,63.7,64.57,64.6,63.8,64.81Z"/></svg>