<svg id="Capa_1" data-name="Capa 1" xmlns="http://www.w3.org/2000/svg" xmlns:xlink="http://www.w3.org/1999/xlink" viewBox="0 0 100 80.5"><defs><style>.cls-1,.cls-6{fill:#f86032;}.cls-1,.cls-17,.cls-3{opacity:0.1;}.cls-1,.cls-10,.cls-3{isolation:isolate;}.cls-2{fill:#e9ccdb;}.cls-4{fill:#caa4bc;}.cls-5{fill:#9c7aa5;}.cls-7{fill:url(#Degradado_sin_nombre_3);}.cls-8{fill:#fd6f8d;}.cls-9{fill:#ffbec5;}.cls-10{opacity:0.05;}.cls-11{fill:#504f88;}.cls-12{fill:#cbe3ff;}.cls-13{fill:#c8bfca;}.cls-14{fill:#f1f1f2;}.cls-15{fill:#7e7a98;}.cls-16{fill:#ffe2da;}.cls-18{fill:#ffd037;}.cls-19{fill:#65617d;}.cls-20{fill:#9d9cb5;}</style><linearGradient id="Degradado_sin_nombre_3" x1="100.42" y1="-0.34" x2="100.42" y2="28.46" gradientTransform="matrix(1, 0, 0, -1, -58.43, 49.61)" gradientUnits="userSpaceOnUse"><stop offset="0" stop-color="gray" stop-opacity="0.25"/><stop offset="0.54" stop-color="gray" stop-opacity="0.12"/><stop offset="1" stop-color="gray" stop-opacity="0.1"/></linearGradient></defs><title>Iconos_Valores</title><ellipse class="cls-1" cx="55.32" cy="67.77" rx="43.43" ry="4.79"/><path class="cls-2" d="M64.35,33.66V48.74a2.71,2.71,0,0,1-.1.75,2.84,2.84,0,0,1-2.74,2.09H48.76a2.84,2.84,0,0,1-2.84-2.84h0V33.66a2.85,2.85,0,0,1,2.84-2.85H61.51a2.85,2.85,0,0,1,2.74,2.09A2.78,2.78,0,0,1,64.35,33.66Z"/><path class="cls-3" d="M46.12,33.66V48.74a2.38,2.38,0,0,1-.1.75,2.71,2.71,0,0,1-.1-.75V33.66a2.78,2.78,0,0,1,.1-.76A2.44,2.44,0,0,1,46.12,33.66Z"/><rect class="cls-2" x="23.58" y="30.81" width="22.34" height="20.76" rx="2.84"/><path class="cls-3" d="M64.35,33.66V48.74a2.71,2.71,0,0,1-.1.75,2.72,2.72,0,0,1-.11-.75V33.66a2.79,2.79,0,0,1,.11-.76A2.78,2.78,0,0,1,64.35,33.66Z"/><rect class="cls-2" x="64.35" y="30.81" width="22.34" height="20.76" rx="2.84"/><path class="cls-3" d="M44.79,53.12H24.38l-.1-1.79c-.11-2,2.48-3.66,5.71-3.66H43.88c1.08,0,1.92.59,1.78,1.26Z"/><path class="cls-4" d="M44.79,53.32H24.38l-.1-1.78c-.11-2,2.48-3.66,5.71-3.66H43.88c1.08,0,1.92.59,1.78,1.25Z"/><path class="cls-3" d="M65.24,53.24h20.4l.1-1.79c.11-2-2.47-3.66-5.71-3.66H66.15c-1.09,0-1.92.59-1.78,1.25Z"/><path class="cls-4" d="M65.24,53.44h20.4l.1-1.78c.11-2-2.47-3.67-5.71-3.67H66.15c-1.09,0-1.92.59-1.78,1.26Z"/><path class="cls-3" d="M48.32,47.79H62.15a2.94,2.94,0,0,1,2.94,2.94h0v1.82h-20V51A3.22,3.22,0,0,1,48.32,47.79Z"/><path class="cls-4" d="M48.32,48H62.15a2.94,2.94,0,0,1,2.94,2.94h0v1.83h-20V51.22A3.23,3.23,0,0,1,48.32,48Z"/><path class="cls-2" d="M25.78,49.83H42.33A2.77,2.77,0,0,1,45.1,52.6v3.75H24.55V51.06A1.23,1.23,0,0,1,25.78,49.83Z"/><path class="cls-3" d="M47.15,49.83H62.88a2.77,2.77,0,0,1,2.77,2.77v3.75H44.53v-3.9A2.62,2.62,0,0,1,47.15,49.83Z"/><path class="cls-3" d="M47.56,49.83H63.29a2.77,2.77,0,0,1,2.77,2.77v3.75H44.94v-3.9A2.62,2.62,0,0,1,47.56,49.83Z"/><path class="cls-2" d="M47.36,49.83H63.08a2.77,2.77,0,0,1,2.78,2.77v3.75H44.74v-3.9A2.62,2.62,0,0,1,47.36,49.83Z"/><path class="cls-3" d="M66.5,49.83H83.3A2.64,2.64,0,0,1,86,52.47v3.88H65.4V50.93a1.1,1.1,0,0,1,1.1-1.1Z"/><path class="cls-2" d="M66.71,49.83h16.8a2.65,2.65,0,0,1,2.65,2.64v3.88H65.61V50.93a1.1,1.1,0,0,1,1.1-1.1Z"/><path class="cls-5" d="M24.85,65v2.8a1.41,1.41,0,0,1-1.41,1.41h-1a1.41,1.41,0,0,1-1.41-1.41V65Z"/><path class="cls-5" d="M89.54,65v2.8a1.41,1.41,0,0,1-1.41,1.41h-1a1.41,1.41,0,0,1-1.42-1.41V65Z"/><path class="cls-2" d="M25.89,46.66a3.76,3.76,0,1,0-4.48,3.68V65.5h4.21V48A3.65,3.65,0,0,0,25.89,46.66Z"/><path class="cls-2" d="M84.55,46.66A3.76,3.76,0,1,1,89,50.34V65.5H84.82V48A3.65,3.65,0,0,1,84.55,46.66Z"/><path class="cls-3" d="M25.89,46.66a3.76,3.76,0,1,0-4.48,3.68V65.5h4.21V48A3.65,3.65,0,0,0,25.89,46.66Z"/><path class="cls-3" d="M84.55,46.66A3.76,3.76,0,1,1,89,50.34V65.5H84.82V48A3.65,3.65,0,0,1,84.55,46.66Z"/><rect class="cls-5" x="23.58" y="62.88" width="63.5" height="2.93"/><rect class="cls-3" x="24.28" y="56.35" width="62.4" height="6.73"/><rect class="cls-4" x="24.28" y="56.15" width="62.4" height="6.73"/><rect class="cls-3" x="85.75" y="65.04" width="3.8" height="0.98"/><path class="cls-2" d="M85.48,47A3.75,3.75,0,1,1,90,50.65V65.81H85.74V48.35A3.84,3.84,0,0,1,85.48,47Z"/><rect class="cls-3" x="21.05" y="65.04" width="3.75" height="0.98"/><path class="cls-2" d="M25.06,47a3.75,3.75,0,1,0-4.48,3.68V65.81H24.8V48.35A3.84,3.84,0,0,0,25.06,47Z"/><rect class="cls-3" x="25.62" y="56.15" width="59.21" height="0.19"/><circle class="cls-4" cx="21.05" cy="46.85" r="1.7"/><circle class="cls-4" cx="89.54" cy="46.85" r="1.7"/><path class="cls-3" d="M39,44c-1.61-.4-5-4.66-5-4.66-1.29-.9-3.9-6.33-3.9-6.33s-1-.46-1.87,1.64-6,3.78-7.48,4c-.86.13-.78.51-.54.82a1.31,1.31,0,0,0,.61.43,16.46,16.46,0,0,1,2.66,2.66c1.87,1.27,3.95,7.12,4.64,8.64.38.85.81.45,1.11-.08a8,8,0,0,1,2.36-2.58,17.56,17.56,0,0,1,5.61-2.61C37.4,45.93,40.6,44.39,39,44Z"/><path class="cls-6" d="M17.51,39a1.59,1.59,0,0,1-.68-.49c-.27-.34-.38-.77.52-.92,1.58-.26,6.83-2.14,7.6-4.51s1.85-1.84,1.85-1.84,3.13,6.13,4.55,7.15c0,0,3.89,4.81,5.62,5.27s-1.53,2.19-1.79,2.19a16.46,16.46,0,0,0-5.72,2.92,8.14,8.14,0,0,0-2.31,2.9c-.28.6-.7,1-1.17.1C25.15,50,22.55,43.41,20.49,42,20.49,42,18.2,39.25,17.51,39Z"/><path class="cls-3" d="M17.51,39a1.59,1.59,0,0,1-.68-.49c-.27-.34-.38-.77.52-.92,1.58-.26,6.83-2.14,7.6-4.51s1.85-1.84,1.85-1.84,3.13,6.13,4.55,7.15c0,0,3.89,4.81,5.62,5.27s-1.53,2.19-1.79,2.19a16.46,16.46,0,0,0-5.72,2.92,8.14,8.14,0,0,0-2.31,2.9c-.28.6-.7,1-1.17.1C25.15,50,22.55,43.41,20.49,42,20.49,42,18.2,39.25,17.51,39Z"/><path class="cls-6" d="M18.62,38.84a1.43,1.43,0,0,1-.63-.43c-.25-.31-.35-.71.5-.85,1.5-.27,6.47-2.06,7.24-4.24s1.77-1.71,1.77-1.71,2.87,5.55,4.18,6.46c0,0,3.6,4.34,5.22,4.74s-1.48,2-1.72,2a16.31,16.31,0,0,0-5.44,2.75,7.92,7.92,0,0,0-2.22,2.69c-.27.55-.68,1-1.1.1-.76-1.57-3.11-7.56-5-8.84A17.48,17.48,0,0,0,18.62,38.84Z"/><path class="cls-3" d="M24.38,40.81s-.53.5,2-.47S24.38,40.81,24.38,40.81Z"/><path class="cls-3" d="M26.5,43.28a5.08,5.08,0,0,0,1.87-.55C29.85,42.13,26.5,43.28,26.5,43.28Z"/><path class="cls-3" d="M26.37,47.82a6.75,6.75,0,0,0,1.84-.61C29.68,46.6,26.37,47.82,26.37,47.82Z"/><path class="cls-3" d="M86.48,37.66v2c-.42.87-.84,2-.84,2-1.23,1.61-1,7-1.11,8.4,0,.8-.58.61-1,.28a8.19,8.19,0,0,0-3-1.33,18.5,18.5,0,0,0-5.93-.32c-.22.07-3.62-.16-2.32-1s2.86-5.33,2.86-5.33c.84-1.12,1.27-6.3,1.27-6.3s.72-.69,2.25.72S84.79,37.93,86.48,37.66Z"/><path class="cls-6" d="M87.6,38.33a1.17,1.17,0,0,0,.4-.53c.1-.32,0-.66-.77-.49-1.45.29-6.59.54-8.11-.87s-2.25-.73-2.25-.73-.43,5.18-1.26,6.31c0,0-1.56,4.49-2.87,5.32s2.11,1.06,2.32,1a18.56,18.56,0,0,1,5.94.32A8.31,8.31,0,0,1,84,50c.46.33,1,.52,1-.28.08-1.44-.11-6.79,1.12-8.4A13.67,13.67,0,0,1,87.6,38.33Z"/><path class="cls-3" d="M87.6,38.33a1.17,1.17,0,0,0,.4-.53c.1-.32,0-.66-.77-.49-1.45.29-6.59.54-8.11-.87s-2.25-.73-2.25-.73-.43,5.18-1.26,6.31c0,0-1.56,4.49-2.87,5.32s2.11,1.06,2.32,1a18.56,18.56,0,0,1,5.94.32A8.31,8.31,0,0,1,84,50c.46.33,1,.52,1-.28.08-1.44-.11-6.79,1.12-8.4A13.67,13.67,0,0,1,87.6,38.33Z"/><path class="cls-6" d="M87.23,38.57a1.23,1.23,0,0,0,.38-.52c.1-.31,0-.61-.73-.46-1.38.27-6.26.51-7.7-.82S77,36.08,77,36.08s-.41,4.92-1.2,6c0,0-1.48,4.27-2.72,5.06s2,1,2.2.94a17.7,17.7,0,0,1,5.64.3,7.59,7.59,0,0,1,2.86,1.27c.43.3.93.49,1-.27.07-1.37-.11-6.45,1.06-8A12.39,12.39,0,0,1,87.23,38.57Z"/><path class="cls-3" d="M83.61,41.4a15.55,15.55,0,0,1-2.08.8C79.81,42.79,83.33,42,83.61,41.4Z"/><path class="cls-3" d="M83.43,43.21a5.51,5.51,0,0,1-1.62,1C81.27,44.25,83.12,44.08,83.43,43.21Z"/><path class="cls-3" d="M84.29,47.3a5.53,5.53,0,0,1-1.62,1C82.13,48.33,84,48.16,84.29,47.3Z"/><path class="cls-7" d="M67.92,48a2.34,2.34,0,0,1-.45-.07s-.09-.08-.26-.08h0a3.73,3.73,0,0,1-1.4-1,8.51,8.51,0,0,0-1.9-1.22,4.4,4.4,0,0,0-1.64-.91c-.65-.06-2.46-1.89-4-3.57a37.27,37.27,0,0,0-3.91-3.53l-1-1.13a7.19,7.19,0,0,1-1.45-1.3,1.48,1.48,0,0,0-1.09-.42A3.61,3.61,0,0,0,49,34.73a6.7,6.7,0,0,0-1.57,1.36L48,29.15a.42.42,0,0,0-.3-.44l-1.82.89a.4.4,0,0,0-.23.34l-.48,7.45L43,39a1.58,1.58,0,0,0-.33-.72c-1.21-1.57-3.08,1.41-3.78,2.65l-.09,0a.33.33,0,0,1-.06.1,9,9,0,0,1-1.51-.93L37.15,40a4.18,4.18,0,0,0-.74-.94,20.18,20.18,0,0,0-1.92-1.94,9.77,9.77,0,0,1-.93-.69,4,4,0,0,0-.24-.46,1.66,1.66,0,0,0-1.3-.76c-.37-.29-.66-.5-.73-.54A5.34,5.34,0,0,1,30.16,33c-.29-.59-2.36-.66-2.36-.66A4.9,4.9,0,0,1,28.35,30a.67.67,0,0,1,.06-.12A3.75,3.75,0,0,0,31,25.24a1.15,1.15,0,0,0-.06-.17c.27-.1.59-.06.87-.15a1.1,1.1,0,0,0,.77-.82,1.15,1.15,0,0,0-.17-.75,2.44,2.44,0,0,0-.47-.6A4.83,4.83,0,0,0,30,21.65a7.6,7.6,0,0,0-2.82-.5,3.61,3.61,0,0,0-2.54,1.15,2.46,2.46,0,0,1-.38.41,1.27,1.27,0,0,1-.77.16c-.88,0-1.8-.38-2.61,0-1,.41-1.31,1.6-1.43,2.64A22.9,22.9,0,0,1,19,28.69a4.09,4.09,0,0,1-1.83,2.59c-.27.15-.58.25-.84.43a1,1,0,0,0-.49.77c0,.44.39.75.59,1.14.11.19.17.41.27.6h0l0,.06h0l0,0v0l0,0h0l0,.05s0,0,.05,0l.05,0c.44.45,1.22.19,1.79.46a1.61,1.61,0,0,1,.3.21c.18.21.34.46.51.69h0l.05.07,0,0,0,0,.07.08.05,0,0,.06a2.79,2.79,0,0,0,1.81.67,2.37,2.37,0,0,0,1.06-.12,1.62,1.62,0,0,0,.41-.27,4.09,4.09,0,0,0,.62.4c.54.35,1.14.68,1.7,1.06.59.56,1.31,1.35,1.32,1.93a7.6,7.6,0,0,0,1.54,2.91l0,.2,2.17,3.2s.16.5,1,.52c-.16,1-.1,2.66.65,2.83s2.29,0,2.49.29,3.59-.13,3.59-.13a7.53,7.53,0,0,1,3.13,0,3.55,3.55,0,0,0,2.34-.17s1.35-.13,1.52-.66a.33.33,0,0,0,.07-.16.48.48,0,0,1,0-.17c.13-.22.34-.29.26-.34.11-.08.13-.1-.19-.16a1.9,1.9,0,0,0-.63,0A2.61,2.61,0,0,0,45,47.8h.14c.48,0,.44-.18.88-.29a13.77,13.77,0,0,1,1.7-.25,2.71,2.71,0,0,0,1.64-.83c.29-.36,1.49-.15,1.82-.76s-.73-1-1.26-.94a.7.7,0,0,0-.38.07,6.17,6.17,0,0,1-1.84.32c-.09,0-.43-.15-.84-.25.35-.57.84-1.35,1.29-2a9.07,9.07,0,0,1,1.28-1.55,2.77,2.77,0,0,1,.61-.71c.61,1.53,4.15,4.08,5.86,4.37a9.62,9.62,0,0,1,3.73,1.86,6.86,6.86,0,0,0-.17,1c0,.14.34.2.77.24a5.32,5.32,0,0,0,2.22.1c.6-.1,2.29.32,3.67.41S68.76,48.07,67.92,48Z"/><path class="cls-8" d="M33.78,36.39,33.65,38l.79,1.72,1.12,1,1.22.72,1.13.79,1.13-1a9.16,9.16,0,0,1-1.8-1.42,5.71,5.71,0,0,0-.89-1.09l-1.05-1-.86-.78Z"/><path class="cls-3" d="M33.78,36.39,33.65,38l.79,1.72,1.12,1,1.22.72,1.13.79,1.13-1a9.16,9.16,0,0,1-1.8-1.42,5.71,5.71,0,0,0-.89-1.09l-1.05-1-.86-.78Z"/><path class="cls-9" d="M28.65,30.06a4.43,4.43,0,0,0-.36,3.32c.73,2.47-4.65-1-4.65-1a11.83,11.83,0,0,0,1.5-3.23,2.42,2.42,0,0,0,0-1.31c-.53-1.5,4.24,1.1,4.24,1.1A4.78,4.78,0,0,0,28.65,30.06Z"/><path class="cls-3" d="M28,32.33s2,.07,2.29.65a5.08,5.08,0,0,0,1.11,1.6c.25.13,2.9,2.3,3.12,2.4A17,17,0,0,1,37,39.71a8.62,8.62,0,0,0,3.85,1.93c1.5.22,3.8,2.93,4.48,2.83a6.13,6.13,0,0,1,2.05.4,6.81,6.81,0,0,0,1.93-.33c.38-.25,1.78.25,1.45.85s-1.5.4-1.77.75a2.65,2.65,0,0,1-1.61.8,14.92,14.92,0,0,0-1.65.25c-.5.13-.37.38-1.13.25s-3.68-5.33-3.68-5.33l-3.25-1.47s-1.23-1-1.33-1.33a27.78,27.78,0,0,0-2.45-2.55l-3.08-2.25Z"/><path class="cls-8" d="M28.12,32.33s2,.07,2.29.65a5.24,5.24,0,0,0,1.11,1.6c.25.13,2.9,2.3,3.12,2.4a17,17,0,0,1,2.51,2.73A8.62,8.62,0,0,0,41,41.64c1.5.22,3.8,2.93,4.48,2.83a6.13,6.13,0,0,1,2.05.4,6.81,6.81,0,0,0,1.93-.33c.38-.25,1.78.25,1.45.85s-1.5.4-1.77.75a2.65,2.65,0,0,1-1.61.8,14.92,14.92,0,0,0-1.65.25c-.5.13-.38.38-1.13.25s-3.68-5.33-3.68-5.33l-3.25-1.47s-1.23-1-1.33-1.33a27.78,27.78,0,0,0-2.44-2.55L31,34.51Z"/><path class="cls-9" d="M38.66,43.51s3-2.69,3.18-2.89,1-.83,2-1.54a27,27,0,0,0,3.31-2.92,8,8,0,0,1,1.67-1.48c.52-.12,1.82-.07,2.09.38a7.51,7.51,0,0,0,1.42,1.27l1,1.1a36.14,36.14,0,0,1,3.82,3.45c1.51,1.66,3.27,3.44,3.91,3.51a4.14,4.14,0,0,1,1.6.88,8.39,8.39,0,0,1,1.85,1.2,3.24,3.24,0,0,0,2.1,1.09c.82,0-.43.66-1.78.58s-3-.5-3.59-.4S59,47.86,59,47.56a6.51,6.51,0,0,1,.17-1,9.3,9.3,0,0,0-3.63-1.82c-1.84-.31-5.85-3.3-5.81-4.69,0,0-.57,0-1.22,1a9.27,9.27,0,0,0-1.25,1.52c-.79,1.12-1.72,2.72-1.72,2.72s-1.45,2.94-2.62,2.91S40.49,48,40.49,48l-1.55-1.1-.1-1.33Z"/><path class="cls-10" d="M38.66,43.51s3-2.69,3.18-2.89,1-.83,2-1.54a27,27,0,0,0,3.31-2.92,8,8,0,0,1,1.67-1.48c.52-.12,1.82-.07,2.09.38a7.51,7.51,0,0,0,1.42,1.27l1,1.1a36.14,36.14,0,0,1,3.82,3.45c1.51,1.66,3.27,3.44,3.91,3.51a4.14,4.14,0,0,1,1.6.88,8.39,8.39,0,0,1,1.85,1.2,3.24,3.24,0,0,0,2.1,1.09c.82,0-.43.66-1.78.58s-3-.5-3.59-.4S59,47.86,59,47.56a6.51,6.51,0,0,1,.17-1,9.3,9.3,0,0,0-3.63-1.82c-1.84-.31-5.85-3.3-5.81-4.69,0,0-.57,0-1.22,1a9.27,9.27,0,0,0-1.25,1.52c-.79,1.12-1.72,2.72-1.72,2.72s-1.45,2.94-2.62,2.91S40.49,48,40.49,48l-1.55-1.1-.1-1.33Z"/><path class="cls-9" d="M39.36,43.66s3-2.69,3.18-2.89,3.92-3,3.92-3,2.54-2.85,3.06-3,1.81-.06,2.08.39A7.37,7.37,0,0,0,53,36.48l1,1.1A36.78,36.78,0,0,1,57.82,41c1.5,1.65,3.27,3.43,3.91,3.5a4.35,4.35,0,0,1,1.6.89,8,8,0,0,1,1.85,1.2,3.21,3.21,0,0,0,2.1,1.08c.82,0-.43.67-1.78.58s-3-.49-3.59-.4-2.22.13-2.22-.18a6.27,6.27,0,0,1,.17-1,9.29,9.29,0,0,0-3.64-1.82c-1.83-.32-5.83-3.3-5.8-4.68,0,0-.57-.06-1.22.95A8.8,8.8,0,0,0,48,42.67c-.79,1.12-1.72,2.72-1.72,2.72s-1.45,2.93-2.62,2.91-2.42-.16-2.42-.16L39.64,47l-.1-1.33Z"/><path class="cls-3" d="M49.13,45.22l-.24.12-.52.27a4.77,4.77,0,0,0,1.36,0c.25,0,.6-.24.31-.49S49.36,45.12,49.13,45.22Z"/><path class="cls-3" d="M46.78,45.58a1.41,1.41,0,0,1,.84,0,1.28,1.28,0,0,1,.25.15l.45.32a5.33,5.33,0,0,1-1.18.22.39.39,0,0,1-.34-.12C46.45,45.86,46.21,45.69,46.78,45.58Z"/><path class="cls-3" d="M29.38,29a4.78,4.78,0,0,0-.73,1.1,3.68,3.68,0,0,1-3.51-.89,2.42,2.42,0,0,0,0-1.31C24.61,26.36,29.38,29,29.38,29Z"/><circle class="cls-9" cx="27.67" cy="26.42" r="3.67"/><polygon class="cls-11" points="28.12 32.33 27.92 32.65 30.3 35.23 31.42 36.02 32.07 35.15 28.12 32.33"/><path class="cls-11" d="M31.78,35.11a1.84,1.84,0,0,1,1.72.75,4.16,4.16,0,0,1,.59,1.71s.55.43.5.67a.68.68,0,0,1-.27.39s-1-.6-1.06-.63l-.81-.91-.67-.7Z"/><path class="cls-3" d="M24.71,31.53s-1.84.14-2,1.43-.25,2,.4,2.89a4.21,4.21,0,0,0,2,1.25s2,1.59,2,2.55,1.72,3.14,1.72,3.14,3.24,2.4,3,3.17-.3,2.95.55,3.15,2.24,0,2.44.29,3.5-.14,3.5-.14a7.54,7.54,0,0,1,3,0A3.41,3.41,0,0,0,43.66,49s1.42-.13,1.5-.7.72-.55.12-.65-1,.22-1.42.07a3.42,3.42,0,0,0-1.8-.63c-1,0-1.23,0-1.34,0a1.57,1.57,0,0,0,.24-1.5c-.4-.92-1.17-1.63-1.14-2.15s-1.5-2.27-1.5-2.27a4.26,4.26,0,0,0-1.68-1.41c-1-.35-2.74-2.51-2.74-2.51s-1.53-2.38-2.36-2.5S28,32.23,28,32.23,25.69,31.28,24.71,31.53Z"/><path class="cls-8" d="M24.66,31.63s-1.84.15-2,1.43-.25,2,.4,2.89a4.11,4.11,0,0,0,2,1.25s2,1.59,2,2.55,1.72,3.14,1.72,3.14,3.24,2.4,3,3.17-.3,3,.55,3.16,2.24,0,2.44.28,3.5-.13,3.5-.13a7.39,7.39,0,0,1,3.06,0,3.38,3.38,0,0,0,2.28-.17s1.42-.14,1.5-.7.72-.55.12-.65-1,.21-1.42.06a3.42,3.42,0,0,0-1.8-.63c-1,0-1.23,0-1.34,0a1.59,1.59,0,0,0,.24-1.51c-.4-.91-1.17-1.63-1.13-2.15s-1.51-2.27-1.51-2.27a4.26,4.26,0,0,0-1.68-1.41,11.86,11.86,0,0,1-2.74-2.51S32.32,35,31.5,34.89,28,32.33,28,32.33,25.64,31.38,24.66,31.63Z"/><path class="cls-3" d="M36.55,46.06a.71.71,0,0,0,.06.78,1,1,0,0,0,.42.21,1.21,1.21,0,0,1,.72.66.69.69,0,0,0,.1.25.5.5,0,0,0,.19.13,6.77,6.77,0,0,0,2.85.59,2.26,2.26,0,0,0-1.19-.6,4.11,4.11,0,0,1-1.05-.17,2.15,2.15,0,0,1-.76-.71.87.87,0,0,1-.18-.31c-.08-.24,0-.52,0-.77s-.38-.65-.53-.68S36.63,45.9,36.55,46.06Z"/><path class="cls-3" d="M49.5,39.87c.21-.07,1.25-.26.94-.66S49.73,39.79,49.5,39.87Z"/><path class="cls-12" d="M45.75,29.65l1.77-.86-.61,8.91L45,37.33,45.52,30A.42.42,0,0,1,45.75,29.65Z"/><path class="cls-13" d="M47.52,28.79h0l-.61,8.91h0a.28.28,0,0,0,.27-.25l.64-8.23A.43.43,0,0,0,47.52,28.79Z"/><path class="cls-14" d="M45,37.28l-5.63,4.14a.4.4,0,0,0-.09.57.08.08,0,0,0,0,0l.56.62L47,37.33l-1.73-.13A.38.38,0,0,0,45,37.28Z"/><polygon class="cls-15" points="44.9 37.7 41.1 40.35 41.63 40.93 46.06 37.78 44.9 37.7"/><path class="cls-13" d="M39.9,42.65h0L47,37.33h0a.55.55,0,0,1-.17.69l-6.26,4.7A.51.51,0,0,1,39.9,42.65Z"/><path class="cls-9" d="M38.67,41.22s2.49-5,4-3.1-2.26,4-2.26,4Z"/><path class="cls-3" d="M25.41,33a3,3,0,0,0-2.09,2,1.32,1.32,0,0,0,.39,1.56c1.25.93,3,1.58,3.84,3.1A10.69,10.69,0,0,1,28.6,42.8l2.12,3.13s.32,1,2.46.21S36.5,45,36.5,45s1.66-.89,2.41-1.22a1.61,1.61,0,0,1,.33-.12,9.33,9.33,0,0,0,2.12-1.74A3.77,3.77,0,0,0,38.8,41s-.11.45-1.53.38a2.43,2.43,0,0,0-2,.54,3.94,3.94,0,0,0-1.15-.23c-.45,0-1.27-.41-1.88-.36a1.13,1.13,0,0,0-.09-1.13c-.4-.51-.77-.47-.94-1.08-.09-.34-.41-1.45-.66-2.34a6.5,6.5,0,0,0-1.92-3.06,3.17,3.17,0,0,0-2-.93A6.61,6.61,0,0,0,25.41,33Z"/><path class="cls-3" d="M25.46,32.71a3,3,0,0,0-2.1,2,1.34,1.34,0,0,0,.39,1.56c1.26.93,3,1.58,3.84,3.1a10.69,10.69,0,0,1,1.05,3.16l2.12,3.13s.32,1,2.47.21,3.32-1.18,3.32-1.18,1.66-.89,2.4-1.22a2.19,2.19,0,0,1,.33-.12,9.33,9.33,0,0,0,2.12-1.74,3.75,3.75,0,0,0-2.56-.89s-.11.45-1.53.38a2.5,2.5,0,0,0-2,.54,3.94,3.94,0,0,0-1.15-.23c-.45,0-1.27-.41-1.88-.36a1.13,1.13,0,0,0-.09-1.13c-.4-.51-.77-.47-.93-1.07-.1-.35-.41-1.46-.67-2.35a6.42,6.42,0,0,0-1.92-3.06,3.06,3.06,0,0,0-2-.92A5.7,5.7,0,0,0,25.46,32.71Z"/><path class="cls-8" d="M25.41,32.81a3,3,0,0,0-2.09,2,1.32,1.32,0,0,0,.39,1.56c1.25.93,3,1.58,3.84,3.1a10.69,10.69,0,0,1,1.05,3.16l2.12,3.13s.32,1,2.46.21,3.32-1.18,3.32-1.18,1.66-.89,2.41-1.22a1.61,1.61,0,0,1,.33-.12,9.33,9.33,0,0,0,2.12-1.74,3.77,3.77,0,0,0-2.56-.89s-.11.45-1.53.38a2.43,2.43,0,0,0-2,.54,3.94,3.94,0,0,0-1.15-.23c-.45,0-1.27-.41-1.88-.36A1.13,1.13,0,0,0,32.2,40c-.4-.51-.77-.47-.94-1.07-.09-.35-.41-1.46-.66-2.35a6.5,6.5,0,0,0-1.92-3.06,3.1,3.1,0,0,0-2-.92A5.88,5.88,0,0,0,25.41,32.81Z"/><path class="cls-3" d="M32,25.07a1.05,1.05,0,0,0,.75-.8,1.09,1.09,0,0,0-.17-.73A3.85,3.85,0,0,0,30.31,22a7,7,0,0,0-2.75-.48,3.46,3.46,0,0,0-2.48,1.13,2.28,2.28,0,0,1-.37.39,1.22,1.22,0,0,1-.75.16,5.94,5.94,0,0,0-2.55,0c-.95.39-1.28,1.56-1.4,2.58a22.11,22.11,0,0,1-.44,3.15,4,4,0,0,1-1.78,2.53,8,8,0,0,0-.82.43,1,1,0,0,0-.48.76c0,.42.38.73.58,1.1a3.31,3.31,0,0,0,.41.82c.44.43,1.2.19,1.75.45s.7.82,1.09,1.2a2.74,2.74,0,0,0,1.76.66,2.26,2.26,0,0,0,1-.12,1.91,1.91,0,0,0,1-1.71,7.67,7.67,0,0,0-.31-2.06,1.31,1.31,0,0,1,0-.68,1,1,0,0,1,.35-.41c.76-.6,1.84-.88,2.28-1.74a5.55,5.55,0,0,0,.27-1.92,1,1,0,0,1,.26-.64,1.39,1.39,0,0,1,.82-.24,4.09,4.09,0,0,0,2.32-1,9.62,9.62,0,0,0,.77-.92C31.18,25.09,31.62,25.2,32,25.07Z"/><path class="cls-16" d="M31.89,25a1.08,1.08,0,0,0,.75-.8,1.22,1.22,0,0,0-.17-.73,3.91,3.91,0,0,0-2.26-1.57,7.06,7.06,0,0,0-2.75-.48A3.5,3.5,0,0,0,25,22.52a1.71,1.71,0,0,1-.37.39,1.21,1.21,0,0,1-.75.16,5.89,5.89,0,0,0-2.54,0c-.95.4-1.28,1.56-1.41,2.58a20.58,20.58,0,0,1-.43,3.15,4,4,0,0,1-1.79,2.53,9.16,9.16,0,0,0-.82.43,1,1,0,0,0-.47.76c0,.42.38.73.57,1.1a3.34,3.34,0,0,0,.42.82c.43.43,1.19.19,1.74.45s.71.82,1.09,1.2a2.74,2.74,0,0,0,1.77.66,2.24,2.24,0,0,0,1-.12,1.92,1.92,0,0,0,1-1.7,8.57,8.57,0,0,0-.31-2.07,1.21,1.21,0,0,1,0-.68,1.07,1.07,0,0,1,.35-.41c.76-.6,1.84-.87,2.27-1.74a5.32,5.32,0,0,0,.28-1.92,1,1,0,0,1,.26-.64,1.28,1.28,0,0,1,.82-.23,4.11,4.11,0,0,0,2.31-1,8.34,8.34,0,0,0,.78-.91C31.07,25,31.52,25.1,31.89,25Z"/><g class="cls-17"><path d="M18.87,34.56c-.51-.25-1.21-.05-1.65-.38a.73.73,0,0,0,.16.23c.43.43,1.19.18,1.74.45a1.16,1.16,0,0,1,.34.24A1.7,1.7,0,0,0,18.87,34.56Z"/><path d="M32.47,23.44a2.12,2.12,0,0,0-.38-.51,1.43,1.43,0,0,1,.14.2,1.25,1.25,0,0,1,.17.73,1.09,1.09,0,0,1-.76.81c-.36.13-.82,0-1.09.31a11.17,11.17,0,0,1-.78.92,4.23,4.23,0,0,1-2.31,1,1.34,1.34,0,0,0-.82.23,1,1,0,0,0-.26.65,5.88,5.88,0,0,1-.28,1.92c-.44.86-1.52,1.13-2.28,1.73a1.12,1.12,0,0,0-.34.41,1.21,1.21,0,0,0,0,.68,7.75,7.75,0,0,1,.31,2.07,1.92,1.92,0,0,1-1,1.7,2.15,2.15,0,0,1-1,.12A2.69,2.69,0,0,1,20,35.76h0a3.88,3.88,0,0,0,.26.31,2.69,2.69,0,0,0,1.76.65,2.15,2.15,0,0,0,1-.12,1.92,1.92,0,0,0,1-1.7,7.61,7.61,0,0,0-.31-2.06,1.21,1.21,0,0,1,0-.68,1.07,1.07,0,0,1,.34-.42c.76-.59,1.84-.87,2.28-1.73a5.55,5.55,0,0,0,.28-1.92,1,1,0,0,1,.26-.65,1.41,1.41,0,0,1,.82-.23,4.2,4.2,0,0,0,2.31-1,9.5,9.5,0,0,0,.78-.92c.27-.3.73-.18,1.1-.31a1.1,1.1,0,0,0,.75-.8A1.16,1.16,0,0,0,32.47,23.44Z"/></g><path class="cls-6" d="M10.91,50.27s.73,1-.34,2.4-2,2.68-1.6,3.58c0,0,1.62-2.69,2.93-2.73S12.36,51.88,10.91,50.27Z"/><path class="cls-3" d="M10.91,50.27a1.4,1.4,0,0,1,.15.3c1.28,1.51,2,2.91.73,3s-2.53,2.09-2.86,2.61l0,.12s1.62-2.69,2.93-2.73S12.36,51.88,10.91,50.27Z"/><path class="cls-18" d="M12.27,51.49a1.28,1.28,0,0,1-.08.61s-.09-.27-.09-.61.05-.18.1-.18S12.27,51.15,12.27,51.49Z"/><path class="cls-18" d="M12.74,51.89c-.3.16-.56.26-.58.22s.2-.21.5-.37.18,0,.2,0S13,51.73,12.74,51.89Z"/><path class="cls-6" d="M7,50.27s-.73,1,.34,2.4,2,2.68,1.6,3.58c0,0-1.62-2.69-2.93-2.73S5.59,51.88,7,50.27Z"/><path class="cls-3" d="M7,50.27a1.4,1.4,0,0,0-.15.3c-1.28,1.51-2,2.91-.73,3S8.68,55.61,9,56.13a.56.56,0,0,1,0,.12S7.35,53.56,6,53.52,5.59,51.88,7,50.27Z"/><path class="cls-18" d="M5.67,51.49c0,.34,0,.61.09.61a1.28,1.28,0,0,0,.08-.61c0-.34,0-.18-.09-.18S5.67,51.15,5.67,51.49Z"/><path class="cls-18" d="M5.2,51.89c.3.16.56.26.58.22s-.2-.21-.5-.37-.17,0-.2,0S4.91,51.73,5.2,51.89Z"/><ellipse class="cls-1" cx="8.97" cy="62.4" rx="7.67" ry="1.18"/><path class="cls-19" d="M12.92,55l0,.3-.05.43,0,.17-.05.43,0,.17-.05.42-.58,4.82c-.06.43-.76.76-1.6.76h-3c-.85,0-1.55-.33-1.6-.76l-.59-4.81,0-.43,0-.17-.06-.43,0-.17-.05-.43L5,55c0-.24.35-.44.83-.44h6.24C12.57,54.51,13,54.71,12.92,55Z"/><polygon class="cls-20" points="12.88 55.25 12.83 55.67 5.11 55.67 5.06 55.25 12.88 55.25"/><polygon class="cls-20" points="12.81 55.85 12.76 56.27 5.19 56.27 5.13 55.85 12.81 55.85"/><polygon class="cls-20" points="12.73 56.45 12.68 56.87 5.26 56.87 5.21 56.45 12.73 56.45"/></svg>