<?xml version="1.0" encoding="utf-8"?>
<!-- Generator: Adobe Illustrator 23.0.6, SVG Export Plug-In . SVG Version: 6.00 Build 0)  -->
<svg version="1.1" id="Capa_1" xmlns="http://www.w3.org/2000/svg" xmlns:xlink="http://www.w3.org/1999/xlink" x="0px" y="0px"
	 viewBox="0 0 293.8 92.3" style="enable-background:new 0 0 293.8 92.3;" xml:space="preserve">
<style type="text/css">
	.st0{fill:#FFFFFF;}
</style>
<title>postopia</title>
<path class="st0" d="M0.6,6.1h16.5c6.8,0,12.1,1.3,15.9,4c3.7,2.5,5.8,6.7,5.6,11.2c0,2.9-0.9,5.7-2.8,7.9c-2,2.4-4.6,4.2-7.5,5.2
	c-3.4,1.3-6.9,1.9-10.5,1.8H15v15.6H0.6V6.1z M23.3,25.5c1.3-1,2-2.6,1.9-4.2c0.1-1.6-0.6-3.2-1.9-4.2c-1.6-1-3.6-1.5-5.5-1.4H15
	v11.1c1,0.1,1.9,0.1,2.9,0.1C19.7,27,21.7,26.5,23.3,25.5z"/>
<path class="st0" d="M48.4,50.1c-5.8-2.8-9.4-8.6-9.2-15c-0.2-6.4,3.5-12.3,9.3-15c6.3-2.9,13.6-2.9,19.9,0c2.8,1.3,5.1,3.4,6.8,6
	c3.2,5.5,3.2,12.4,0,17.9c-1.6,2.6-4,4.7-6.8,6c-3.1,1.5-6.5,2.2-10,2.2C54.9,52.3,51.5,51.6,48.4,50.1z M62.9,40.3
	c2.4-3.1,2.4-7.4,0-10.4c-2.2-2.5-6-2.7-8.5-0.5c-0.2,0.2-0.4,0.3-0.5,0.5c-2.3,3.1-2.3,7.4,0,10.4c2.2,2.5,6,2.7,8.5,0.5
	C62.6,40.7,62.7,40.5,62.9,40.3z"/>
<path class="st0" d="M81.8,50.2l1.5-7.9c3,1.1,6.1,1.7,9.3,1.7c2.2,0,3.3-0.6,3.3-1.9c0-0.7-0.4-1.2-1-1.5c-1.1-0.6-2.4-0.9-3.6-1.1
	c-3.7-0.7-6.3-1.9-8-3.6s-2.4-4.1-2.4-7.2c0-3.2,1.6-6.2,4.2-8c2.6-1.9,6.2-2.8,10.7-2.8c2,0,4,0.1,5.9,0.4c1.6,0.3,3.1,0.7,4.6,1.4
	l-1.4,7.9c-1.4-0.5-2.8-0.9-4.2-1.1c-1.3-0.2-2.5-0.4-3.8-0.4c-1.1-0.1-2.1,0.1-3.1,0.5c-0.5,0.2-0.9,0.7-0.9,1.3
	c0,1,1.1,1.7,3.3,2.1c4,0.7,7,1.9,9,3.7c2,1.8,3.1,4.5,3,7.2c0.1,3.2-1.2,6.2-3.7,8.3c-2.5,2-6,3-10.6,3
	C89.7,52.4,85.6,51.7,81.8,50.2z"/>
<path class="st0" d="M118.6,49c-2.2-2.2-3.2-5.3-3.2-9.3v-13h-4.3v-8.2h5.2l6.2-12.6h6.7v12.6h7.7v8.2h-7.7V38
	c-0.1,1,0.3,1.9,1.1,2.6c0.9,0.7,1.9,1,3,0.9c1.1,0,2.3-0.3,3.3-0.8l0.5,9.3c-1.3,0.8-2.8,1.3-4.3,1.6c-1.7,0.4-3.4,0.6-5.1,0.6
	C123.8,52.3,120.8,51.2,118.6,49z"/>
<path class="st0" d="M149,50.1c-5.8-2.7-9.4-8.6-9.2-15c-0.2-6.4,3.5-12.3,9.3-15c6.3-2.9,13.6-2.9,19.9,0c2.8,1.3,5.1,3.4,6.8,6
	c3.2,5.5,3.2,12.4,0,17.9c-1.6,2.6-4,4.7-6.8,6c-3.1,1.5-6.5,2.2-10,2.2C155.5,52.3,152.1,51.6,149,50.1z M163.5,40.3
	c2.3-3.1,2.3-7.4,0-10.4c-2.2-2.5-6-2.7-8.5-0.5c-0.2,0.2-0.4,0.3-0.5,0.5c-2.3,3.1-2.3,7.4,0,10.4c2.2,2.5,6,2.7,8.5,0.5
	C163.2,40.7,163.4,40.5,163.5,40.3z"/>
<path class="st0" d="M183.1,18.9h14v5.8c2.1-4.5,5.7-6.7,10.8-6.7c2.9,0,5.7,0.7,8.2,2.2s4.5,3.6,5.9,6.1c1.5,2.7,2.2,5.7,2.2,8.8
	c0,3.1-0.7,6.1-2.2,8.8c-1.4,2.5-3.5,4.7-6,6.1c-2.4,1.5-5.2,2.2-8,2.2c-4.7,0.2-9-2.4-10.9-6.7v14.8l-14,2.7V18.9z M208.4,39.8
	c1.2-1.2,1.9-2.9,1.9-4.6c0-3.7-2.9-6.6-6.6-6.7c-1.7,0-3.4,0.7-4.6,1.9c-1.2,1.2-1.9,2.8-1.9,4.5v0.3c0,3.6,2.9,6.6,6.6,6.6
	C205.5,41.8,207.2,41.1,208.4,39.8L208.4,39.8z"/>
<path class="st0" d="M230.9,11.5c-1.4-1.2-2.2-3-2.2-4.8c0-1.9,0.8-3.6,2.3-4.8c1.4-1.3,3.3-1.9,5.2-1.9c2,0,3.8,0.7,5.3,2
	c2.6,2.2,3,6.1,0.8,8.8c-0.2,0.3-0.5,0.6-0.8,0.8c-1.5,1.3-3.3,2-5.2,1.9C234.3,13.6,232.4,12.9,230.9,11.5z M232.3,48.7
	c-2.1-2.4-3.1-5.7-3.1-9.8V18.5h14.1v19.9c-0.1,0.9,0.2,1.7,0.8,2.4c0.6,0.6,1.4,0.9,2.2,0.8c1,0,1.9-0.3,2.7-0.8l0.7,9.2
	c-1.1,0.8-2.4,1.4-3.8,1.7c-1.6,0.4-3.2,0.6-4.9,0.6C237.3,52.3,234.4,51.1,232.3,48.7z"/>
<path class="st0" d="M260.2,50c-2.5-1.5-4.6-3.7-6-6.2c-1.5-2.7-2.3-5.7-2.3-8.8c0-3,0.7-6,2.3-8.7c1.4-2.5,3.5-4.6,6-6.1
	c2.4-1.4,5.2-2.2,8-2.2c2.3,0,4.5,0.7,6.4,1.9c2.1,1.4,3.6,3.4,4.5,5.8V18h14v33.8h-14v-6.2c-1.9,4.3-6.2,6.9-10.9,6.7
	C265.4,52.3,262.6,51.5,260.2,50z M277.2,39.9c1.2-1.2,1.9-2.8,2-4.5v-0.5c-0.1-1.7-0.8-3.4-2.1-4.5c-1.2-1.2-2.8-1.9-4.5-1.9
	c-1.8,0-3.5,0.7-4.8,2c-2.6,2.5-2.6,6.7-0.1,9.3l0.1,0.1c1.3,1.2,3,1.9,4.7,1.9C274.3,41.9,275.9,41.2,277.2,39.9L277.2,39.9z"/>
<path class="st0" d="M0,69.3h12.1v3.8h-6v3.1h5.5v3.2H6.1v3.3h6v3.8H0V69.3z"/>
<path class="st0" d="M15.6,85.4c-0.8-1-1.2-2.4-1.2-3.7V70l5.3-0.8v12.1c0,0.4,0.1,0.7,0.3,1c0.3,0.2,0.8,0.4,1.2,0.3
	c0.4,0,0.9-0.1,1.2-0.3l0.2,3.5c-1.2,0.6-2.5,0.9-3.8,0.9C17.6,86.8,16.4,86.3,15.6,85.4z"/>
<path class="st0" d="M30.5,85.9c-0.9-0.6-1.7-1.4-2.2-2.4s-0.8-2.1-0.8-3.2s0.3-2.3,0.9-3.3c0.5-1,1.3-1.8,2.3-2.4
	c0.9-0.6,1.9-0.9,3-0.9c0.9,0,1.7,0.2,2.5,0.6c0.7,0.5,1.3,1.1,1.6,1.9V70l5.3-0.8v17.4h-5.3v-2.3c-0.7,1.6-2.4,2.7-4.1,2.5
	C32.5,86.8,31.5,86.5,30.5,85.9z M37.1,82c0.5-0.5,0.7-1.1,0.7-1.8v-0.1c0-0.6-0.3-1.3-0.8-1.7c-0.5-0.5-1.1-0.7-1.7-0.7
	c-0.7,0-1.3,0.3-1.8,0.7c-0.5,0.5-0.7,1.1-0.7,1.8c0,1.4,1.1,2.5,2.5,2.5C36,82.8,36.6,82.5,37.1,82z"/>
<path class="st0" d="M48.5,85.9c-1-0.5-1.9-1.3-2.5-2.3s-0.9-2.2-0.9-3.3c0-2.4,1.3-4.6,3.4-5.7c1.1-0.5,2.3-0.8,3.5-0.8
	c1.1,0,2.2,0.3,3.2,0.8c0.9,0.5,1.6,1.3,2,2.2c0.5,1,0.7,2.1,0.7,3.1c0,0.2,0,0.4-0.1,0.7l-7.5,1c0.2,0.5,0.5,1,1,1.3
	c0.6,0.3,1.2,0.4,1.8,0.4c1.3,0,2.5-0.3,3.7-0.9l0.6,3.4c-1.6,0.7-3.4,1-5.1,1C50.9,86.8,49.6,86.5,48.5,85.9z M53.9,78.4
	c-0.1-0.9-1-1.6-1.9-1.6c-0.6,0-1.1,0.2-1.4,0.7C50.2,78,50,78.6,50,79.3L53.9,78.4z"/>
<path class="st0" d="M60.8,85.4c-0.8-1-1.2-2.4-1.2-3.7V70l5.3-0.8v12.1c0,0.4,0.1,0.7,0.3,1c0.3,0.2,0.8,0.4,1.2,0.3
	c0.4,0,0.8-0.1,1.2-0.3l0.2,3.5c-1.2,0.6-2.5,0.9-3.8,0.9C62.8,86.8,61.6,86.3,60.8,85.4z"/>
<path class="st0" d="M69.8,71.3c-0.5-0.5-0.8-1.1-0.8-1.8c0-0.7,0.3-1.4,0.9-1.8c0.6-0.5,1.3-0.7,2-0.7s1.5,0.3,2,0.8
	c1,0.8,1.1,2.3,0.3,3.3c-0.1,0.1-0.2,0.2-0.3,0.3c-0.6,0.5-1.3,0.7-2,0.7C71,72.1,70.3,71.8,69.8,71.3z M70.3,85.4
	c-0.8-1-1.3-2.4-1.2-3.7V74h5.3v7.5c0,0.3,0.1,0.6,0.3,0.9c0.2,0.2,0.5,0.3,0.8,0.3c0.4,0,0.7-0.1,1-0.3l0.3,3.5
	c-0.4,0.3-0.9,0.5-1.4,0.6c-0.6,0.2-1.2,0.2-1.9,0.2C72.3,86.8,71.1,86.3,70.3,85.4L70.3,85.4z"/>
<path class="st0" d="M76.6,74h5.8l1.9,7.5l1.9-7.5h4.6l-4,12.6h-6.1L76.6,74z"/>
<path class="st0" d="M94.8,85.9c-1-0.5-1.9-1.3-2.5-2.3c-1.8-3-0.9-6.9,2.1-8.7c0.1-0.1,0.3-0.2,0.4-0.3c1.1-0.5,2.3-0.8,3.5-0.8
	c1.1,0,2.2,0.3,3.2,0.8c0.9,0.5,1.6,1.3,2,2.2c0.4,1,0.7,2.1,0.6,3.1c0,0.2,0,0.4-0.1,0.7l-7.5,1c0.2,0.5,0.5,1,1,1.3
	s1.2,0.4,1.8,0.4c1.3,0,2.5-0.3,3.7-0.9l0.6,3.4c-1.6,0.7-3.4,1-5.1,1C97.3,86.8,96,86.5,94.8,85.9z M100.2,78.4
	c-0.1-0.9-1-1.6-1.9-1.6c-0.6,0-1.1,0.2-1.4,0.7c-0.4,0.5-0.6,1.1-0.6,1.8L100.2,78.4z"/>
<path class="st0" d="M106,74.1h5.3v2.6c0.3-0.9,0.8-1.6,1.6-2.2c0.7-0.5,1.5-0.7,2.3-0.7l0.7,4.1c-1.2-0.1-2.4,0.1-3.5,0.5
	c-0.7,0.2-1.1,0.9-1.1,1.6v6.5H106V74.1z"/>
<path class="st0" d="M121.3,92l0.4-3.7c0.6,0.1,1.2,0.1,1.8,0.1c0.9,0.1,1.7-0.3,2.3-0.9c0.6-1,0.9-2.2,0.8-3.4
	c-0.8,1.6-2.4,2.6-4.2,2.5c-1.5,0.1-2.9-0.6-3.8-1.7c-1-1.4-1.5-3.1-1.4-4.8V74h5.3v7c0,0.5,0.2,1,0.5,1.4s0.8,0.6,1.3,0.6
	c0.6,0,1.1-0.3,1.4-0.7c0.4-0.6,0.6-1.2,0.5-1.9V74h5.3v9.4c0,2.9-0.7,5.1-2,6.7c-1.4,1.6-3.5,2.4-5.6,2.3
	C123,92.3,122.1,92.2,121.3,92z"/>
<path class="st0" d="M138.2,74.1h5.3v2.6c0.3-0.9,0.8-1.6,1.6-2.2c0.7-0.5,1.5-0.7,2.3-0.7l0.7,4.1c-1.2-0.1-2.4,0.1-3.5,0.5
	c-0.7,0.2-1.1,0.9-1.1,1.6v6.5h-5.3V74.1z"/>
<path class="st0" d="M152.2,85.9c-1-0.5-1.9-1.3-2.5-2.3c-1.8-3-0.9-6.9,2.1-8.7c0.1-0.1,0.3-0.2,0.4-0.3c1.1-0.5,2.3-0.8,3.5-0.8
	c1.1,0,2.2,0.3,3.2,0.8c0.9,0.5,1.6,1.3,2,2.2c0.4,1,0.7,2.1,0.6,3.1c0,0.2,0,0.4,0,0.7l-7.5,1c0.2,0.5,0.5,1,1,1.3s1.2,0.4,1.8,0.4
	c1.3,0,2.5-0.3,3.7-0.9l0.6,3.4c-1.6,0.7-3.4,1-5.1,1C154.7,86.8,153.4,86.5,152.2,85.9z M157.6,78.4c-0.1-0.9-1-1.6-1.9-1.6
	c-0.6,0-1.1,0.2-1.5,0.6c-0.4,0.5-0.6,1.1-0.5,1.8L157.6,78.4z"/>
<path class="st0" d="M163.1,86l0.6-3c1.1,0.4,2.3,0.6,3.5,0.6c0.8,0,1.3-0.2,1.3-0.7c0-0.2-0.1-0.5-0.4-0.6
	c-0.4-0.2-0.9-0.3-1.4-0.4c-1.1-0.1-2.2-0.6-3-1.4c-1.4-1.7-1.2-4.2,0.5-5.6c0.1,0,0.1-0.1,0.2-0.1c1.2-0.8,2.6-1.1,4-1.1
	c0.8,0,1.5,0,2.2,0.2c0.6,0.1,1.2,0.3,1.7,0.5l-0.5,3c-1-0.4-2-0.5-3-0.6c-0.4,0-0.8,0-1.2,0.2c-0.2,0.1-0.3,0.3-0.3,0.5
	c0,0.4,0.4,0.6,1.3,0.8c1.2,0.1,2.4,0.6,3.4,1.4c0.8,0.7,1.2,1.7,1.1,2.7c0.1,1.2-0.5,2.4-1.4,3.1c-1.2,0.8-2.6,1.2-4,1.1
	C166.2,86.8,164.6,86.5,163.1,86z"/>
<path class="st0" d="M175,74.1h5.3v2.2c0.7-1.6,2.3-2.6,4.1-2.5c2.2,0,4.3,1.2,5.4,3.2c0.6,1,0.8,2.2,0.8,3.3c0,1.2-0.3,2.3-0.9,3.3
	c-0.5,1-1.3,1.8-2.3,2.3c-0.9,0.5-1.9,0.8-3,0.8c-1.8,0.1-3.4-0.9-4.1-2.5v5.6l-5.3,1V74.1z M184.6,82c0.5-0.5,0.7-1.1,0.7-1.8
	c0-1.4-1.1-2.5-2.5-2.5c-0.7,0-1.3,0.2-1.8,0.7c-0.5,0.4-0.7,1.1-0.7,1.7v0.1c0,1.4,1.1,2.5,2.5,2.5C183.5,82.8,184.1,82.5,184.6,82
	L184.6,82z"/>
<path class="st0" d="M195.3,85.9c-2.2-1-3.5-3.3-3.5-5.7c-0.1-2.4,1.3-4.6,3.5-5.7c2.4-1.1,5.2-1.1,7.5,0c1,0.5,1.9,1.3,2.5,2.3
	c1.9,3,1,6.9-2,8.7c-0.2,0.1-0.4,0.2-0.6,0.3C200.5,87,197.7,87,195.3,85.9L195.3,85.9z M200.8,82.2c0.9-1.2,0.9-2.8,0-4
	c-0.8-0.9-2.3-1-3.2-0.2c-0.1,0.1-0.1,0.1-0.2,0.2c-0.9,1.2-0.9,2.8,0,4c0.8,0.9,2.3,1,3.2,0.2C200.7,82.4,200.8,82.3,200.8,82.2z"
	/>
<path class="st0" d="M208.3,74.1h5v2.6c0.8-1.8,2.6-3,4.6-2.9c1.5-0.1,2.9,0.6,3.8,1.7c1,1.4,1.5,3.1,1.4,4.8v6.3h-5.3v-6.8
	c0-0.6-0.1-1.2-0.5-1.7c-0.3-0.4-0.8-0.6-1.3-0.6c-0.4,0-0.8,0.1-1.2,0.4s-0.7,0.7-0.9,1.1c-0.2,0.5-0.4,1.1-0.4,1.7v5.9h-5.3
	L208.3,74.1L208.3,74.1z"/>
<path class="st0" d="M225.3,86l0.6-3c1.1,0.4,2.3,0.6,3.5,0.6c0.8,0,1.3-0.2,1.3-0.7c0-0.2-0.1-0.5-0.4-0.6
	c-0.4-0.2-0.9-0.3-1.4-0.4c-1.1-0.1-2.2-0.6-3-1.4c-1.4-1.7-1.2-4.2,0.5-5.6c0.1,0,0.1-0.1,0.2-0.1c1.2-0.8,2.6-1.1,4-1.1
	c0.8,0,1.5,0,2.2,0.2c0.6,0.1,1.2,0.3,1.7,0.5l-0.5,3c-0.5-0.2-1.1-0.3-1.6-0.4s-1-0.1-1.4-0.1s-0.8,0-1.2,0.2
	c-0.2,0.1-0.3,0.3-0.3,0.5c0,0.4,0.4,0.6,1.3,0.8c1.2,0.2,2.4,0.6,3.4,1.4c0.7,0.7,1.1,1.7,1.1,2.7c0.1,1.2-0.5,2.4-1.4,3.1
	c-1.2,0.8-2.6,1.2-4,1.1C228.3,86.8,226.7,86.5,225.3,86z"/>
<path class="st0" d="M239.6,85.9c-0.9-0.6-1.7-1.4-2.3-2.4s-0.9-2.2-0.9-3.3c0-1.2,0.3-2.3,0.9-3.3c0.5-1,1.3-1.7,2.3-2.3
	c0.9-0.5,1.9-0.8,3-0.8c0.9,0,1.7,0.3,2.4,0.7c0.8,0.5,1.4,1.3,1.7,2.2v-2.9h5.3v12.8h-5.3v-2.3c-0.7,1.6-2.4,2.6-4.1,2.5
	C241.6,86.8,240.5,86.5,239.6,85.9z M246,82.1c0.5-0.4,0.7-1.1,0.8-1.7v-0.2c0-0.7-0.3-1.3-0.8-1.7c-0.4-0.4-1.1-0.7-1.7-0.7
	c-1.4,0-2.5,1.1-2.5,2.5c0,0.7,0.3,1.3,0.8,1.8s1.1,0.7,1.8,0.7C245,82.8,245.6,82.5,246,82.1z"/>
<path class="st0" d="M260,84.2v2.3h-5.3V70l5.3-0.8v7.1c0.3-0.8,0.9-1.5,1.6-1.9s1.6-0.6,2.4-0.6c2.2,0,4.3,1.2,5.3,3.2
	c0.6,1,0.8,2.2,0.8,3.3c0,1.2-0.3,2.3-0.8,3.3s-1.3,1.8-2.3,2.3c-0.9,0.6-1.9,0.9-3,0.9C262.3,86.9,260.7,85.9,260,84.2z M264.2,82
	c0.5-0.5,0.7-1.1,0.7-1.8c0-1.4-1.1-2.5-2.5-2.5c-0.7,0-1.3,0.2-1.8,0.7c-0.5,0.4-0.7,1.1-0.7,1.7v0.1c0,0.7,0.3,1.3,0.7,1.8
	c0.5,0.5,1.1,0.7,1.8,0.7C263.2,82.8,263.8,82.5,264.2,82L264.2,82z"/>
<path class="st0" d="M273.3,85.4c-0.8-1-1.2-2.4-1.2-3.7V70l5.3-0.8v12.1c0,0.4,0.1,0.7,0.3,1c0.3,0.2,0.8,0.4,1.2,0.3
	c0.4,0,0.8-0.1,1.2-0.3l0.2,3.5c-1.2,0.6-2.5,0.9-3.8,0.9C275.3,86.8,274.1,86.3,273.3,85.4z"/>
<path class="st0" d="M284.5,85.9c-1-0.5-1.9-1.3-2.5-2.3c-1.8-3-0.9-6.9,2.1-8.7c0.2-0.1,0.3-0.2,0.5-0.3c1.1-0.5,2.3-0.8,3.5-0.8
	c1.1,0,2.2,0.3,3.2,0.8c0.9,0.5,1.6,1.3,2,2.2c0.5,1,0.7,2.1,0.7,3.1c0,0.2,0,0.4,0,0.7l-7.5,1c0.2,0.5,0.5,1,1,1.3
	c0.6,0.3,1.2,0.4,1.8,0.4c1.3,0,2.5-0.3,3.7-0.9l0.6,3.4c-1.6,0.7-3.4,1-5.1,1C286.9,86.8,285.6,86.5,284.5,85.9z M289.9,78.4
	c-0.1-0.9-1-1.6-1.9-1.6c-0.6,0-1.1,0.2-1.4,0.7c-0.4,0.5-0.6,1.1-0.6,1.8L289.9,78.4z"/>
</svg>
